<svg xmlns="http://www.w3.org/2000/svg" width="24" height="24" viewBox="0 0 24 24" fill="none" stroke="currentColor" stroke-width="1.5" stroke-linecap="round" stroke-linejoin="round"><path d="M2 12a10 10 0 0 1 18-6"/><path d="M7 10a5 5 0 0 1 10 0"/><path d="M12 10a2 2 0 0 1 2 2"/><path d="M7 20c0-1.57.1-3.14.1-4.71"/><path d="M12 20c0-1.57.1-3.14.1-4.71"/><path d="M17 20c0-1.57.1-3.14.1-4.71"/><path d="M2 12c0-1.57.1-3.14.1-4.71"/><path d="M12 10a2 2 0 0 1-2 2"/><path d="M12 14v4"/><path d="M12 6V2"/></svg>
